<mxfile host="Electron" agent="Mozilla/5.0 (Windows NT 10.0; Win64; x64) AppleWebKit/537.36 (KHTML, like Gecko) draw.io/24.7.17 Chrome/128.0.6613.36 Electron/32.0.1 Safari/537.36" version="24.7.17">
  <diagram name="Pagina-1" id="nE9x_HqnzeP_BkiM5YJi">
    <mxGraphModel dx="1863" dy="606" grid="1" gridSize="10" guides="1" tooltips="1" connect="1" arrows="1" fold="1" page="1" pageScale="1" pageWidth="827" pageHeight="1169" math="0" shadow="0">
      <root>
        <mxCell id="0" />
        <mxCell id="1" parent="0" />
        <mxCell id="DDnz-kFCZ5VNoQRXpzYX-9" value="&lt;b&gt;Amministratore&lt;/b&gt;" style="swimlane;fontStyle=0;childLayout=stackLayout;horizontal=1;startSize=26;fillColor=#dae8fc;horizontalStack=0;resizeParent=1;resizeParentMax=0;resizeLast=0;collapsible=1;marginBottom=0;whiteSpace=wrap;html=1;strokeColor=#6c8ebf;" parent="1" vertex="1">
          <mxGeometry x="357" y="578" width="190" height="52" as="geometry" />
        </mxCell>
        <mxCell id="UJv71o3bR3QkaDZQn8Xq-12" value="+ Codice_Autenticazione : String" style="text;strokeColor=none;fillColor=none;align=left;verticalAlign=top;spacingLeft=4;spacingRight=4;overflow=hidden;rotatable=0;points=[[0,0.5],[1,0.5]];portConstraint=eastwest;whiteSpace=wrap;html=1;" parent="DDnz-kFCZ5VNoQRXpzYX-9" vertex="1">
          <mxGeometry y="26" width="190" height="26" as="geometry" />
        </mxCell>
        <mxCell id="DDnz-kFCZ5VNoQRXpzYX-15" value="&lt;b&gt;Utente&lt;/b&gt;" style="swimlane;fontStyle=0;childLayout=stackLayout;horizontal=1;startSize=26;fillColor=#dae8fc;horizontalStack=0;resizeParent=1;resizeParentMax=0;resizeLast=0;collapsible=1;marginBottom=0;whiteSpace=wrap;html=1;strokeColor=#6c8ebf;" parent="1" vertex="1">
          <mxGeometry x="647" y="373" width="180" height="182" as="geometry" />
        </mxCell>
        <mxCell id="DDnz-kFCZ5VNoQRXpzYX-16" value="+ ID_Utente : int" style="text;strokeColor=none;fillColor=none;align=left;verticalAlign=top;spacingLeft=4;spacingRight=4;overflow=hidden;rotatable=0;points=[[0,0.5],[1,0.5]];portConstraint=eastwest;whiteSpace=wrap;html=1;" parent="DDnz-kFCZ5VNoQRXpzYX-15" vertex="1">
          <mxGeometry y="26" width="180" height="26" as="geometry" />
        </mxCell>
        <mxCell id="DDnz-kFCZ5VNoQRXpzYX-17" value="+ Nome : String" style="text;strokeColor=none;fillColor=none;align=left;verticalAlign=top;spacingLeft=4;spacingRight=4;overflow=hidden;rotatable=0;points=[[0,0.5],[1,0.5]];portConstraint=eastwest;whiteSpace=wrap;html=1;" parent="DDnz-kFCZ5VNoQRXpzYX-15" vertex="1">
          <mxGeometry y="52" width="180" height="26" as="geometry" />
        </mxCell>
        <mxCell id="DDnz-kFCZ5VNoQRXpzYX-18" value="+ Cognome : String" style="text;strokeColor=none;fillColor=none;align=left;verticalAlign=top;spacingLeft=4;spacingRight=4;overflow=hidden;rotatable=0;points=[[0,0.5],[1,0.5]];portConstraint=eastwest;whiteSpace=wrap;html=1;" parent="DDnz-kFCZ5VNoQRXpzYX-15" vertex="1">
          <mxGeometry y="78" width="180" height="26" as="geometry" />
        </mxCell>
        <mxCell id="DDnz-kFCZ5VNoQRXpzYX-20" value="+ Data_di_Nascita : Date" style="text;strokeColor=none;fillColor=none;align=left;verticalAlign=top;spacingLeft=4;spacingRight=4;overflow=hidden;rotatable=0;points=[[0,0.5],[1,0.5]];portConstraint=eastwest;whiteSpace=wrap;html=1;" parent="DDnz-kFCZ5VNoQRXpzYX-15" vertex="1">
          <mxGeometry y="104" width="180" height="26" as="geometry" />
        </mxCell>
        <mxCell id="UJv71o3bR3QkaDZQn8Xq-10" value="+ Email : String" style="text;strokeColor=none;fillColor=none;align=left;verticalAlign=top;spacingLeft=4;spacingRight=4;overflow=hidden;rotatable=0;points=[[0,0.5],[1,0.5]];portConstraint=eastwest;whiteSpace=wrap;html=1;" parent="DDnz-kFCZ5VNoQRXpzYX-15" vertex="1">
          <mxGeometry y="130" width="180" height="26" as="geometry" />
        </mxCell>
        <mxCell id="UJv71o3bR3QkaDZQn8Xq-11" value="+ Password : String" style="text;strokeColor=none;fillColor=none;align=left;verticalAlign=top;spacingLeft=4;spacingRight=4;overflow=hidden;rotatable=0;points=[[0,0.5],[1,0.5]];portConstraint=eastwest;whiteSpace=wrap;html=1;" parent="DDnz-kFCZ5VNoQRXpzYX-15" vertex="1">
          <mxGeometry y="156" width="180" height="26" as="geometry" />
        </mxCell>
        <mxCell id="DDnz-kFCZ5VNoQRXpzYX-38" value="&lt;b&gt;EnumYN&lt;/b&gt;" style="swimlane;childLayout=stackLayout;horizontal=1;startSize=50;horizontalStack=0;rounded=1;fontSize=14;fontStyle=0;strokeWidth=2;resizeParent=0;resizeLast=1;shadow=0;dashed=0;align=center;arcSize=4;whiteSpace=wrap;html=1;fillColor=#d5e8d4;strokeColor=#82b366;" parent="1" vertex="1">
          <mxGeometry x="1000" y="695" width="170" height="120" as="geometry" />
        </mxCell>
        <mxCell id="DDnz-kFCZ5VNoQRXpzYX-39" value="&lt;font style=&quot;font-size: 18px;&quot;&gt;+ Si&lt;/font&gt;&lt;div&gt;&lt;font size=&quot;3&quot;&gt;+ No&lt;/font&gt;&lt;/div&gt;" style="align=left;strokeColor=none;fillColor=none;spacingLeft=4;fontSize=12;verticalAlign=top;resizable=0;rotatable=0;part=1;html=1;" parent="DDnz-kFCZ5VNoQRXpzYX-38" vertex="1">
          <mxGeometry y="50" width="170" height="70" as="geometry" />
        </mxCell>
        <mxCell id="DDnz-kFCZ5VNoQRXpzYX-41" value="&lt;b&gt;EnumSIR&lt;/b&gt;" style="swimlane;childLayout=stackLayout;horizontal=1;startSize=50;horizontalStack=0;rounded=1;fontSize=14;fontStyle=0;strokeWidth=2;resizeParent=0;resizeLast=1;shadow=0;dashed=0;align=center;arcSize=4;whiteSpace=wrap;html=1;fillColor=#d5e8d4;strokeColor=#82b366;" parent="1" vertex="1">
          <mxGeometry x="1241" y="825" width="170" height="120" as="geometry" />
        </mxCell>
        <mxCell id="DDnz-kFCZ5VNoQRXpzYX-42" value="&lt;font style=&quot;font-size: 18px;&quot;&gt;+ Vendita&lt;/font&gt;&lt;div&gt;&lt;font size=&quot;3&quot;&gt;+ In_affitto&lt;/font&gt;&lt;/div&gt;" style="align=left;strokeColor=none;fillColor=none;spacingLeft=4;fontSize=12;verticalAlign=top;resizable=0;rotatable=0;part=1;html=1;" parent="DDnz-kFCZ5VNoQRXpzYX-41" vertex="1">
          <mxGeometry y="50" width="170" height="70" as="geometry" />
        </mxCell>
        <mxCell id="DDnz-kFCZ5VNoQRXpzYX-49" value="&lt;b&gt;EnumP&lt;/b&gt;" style="swimlane;childLayout=stackLayout;horizontal=1;startSize=50;horizontalStack=0;rounded=1;fontSize=14;fontStyle=0;strokeWidth=2;resizeParent=0;resizeLast=1;shadow=0;dashed=0;align=center;arcSize=4;whiteSpace=wrap;html=1;fillColor=#d5e8d4;strokeColor=#82b366;" parent="1" vertex="1">
          <mxGeometry x="1211" y="690" width="170" height="120" as="geometry" />
        </mxCell>
        <mxCell id="DDnz-kFCZ5VNoQRXpzYX-50" value="&lt;font style=&quot;font-size: 18px;&quot;&gt;+ Accettata&lt;/font&gt;&lt;div&gt;&lt;font size=&quot;3&quot;&gt;+ In_attesa&lt;/font&gt;&lt;/div&gt;&lt;div&gt;&lt;font size=&quot;3&quot;&gt;+ Rifiutata&lt;/font&gt;&lt;/div&gt;" style="align=left;strokeColor=none;fillColor=none;spacingLeft=4;fontSize=12;verticalAlign=top;resizable=0;rotatable=0;part=1;html=1;" parent="DDnz-kFCZ5VNoQRXpzYX-49" vertex="1">
          <mxGeometry y="50" width="170" height="70" as="geometry" />
        </mxCell>
        <mxCell id="DDnz-kFCZ5VNoQRXpzYX-70" value="carica" style="text;html=1;align=center;verticalAlign=middle;resizable=0;points=[];autosize=1;strokeColor=none;fillColor=none;rotation=-40;" parent="1" vertex="1">
          <mxGeometry x="252" y="540" width="60" height="30" as="geometry" />
        </mxCell>
        <mxCell id="DDnz-kFCZ5VNoQRXpzYX-75" value="riguarda" style="text;html=1;align=center;verticalAlign=middle;resizable=0;points=[];autosize=1;strokeColor=none;fillColor=none;" parent="1" vertex="1">
          <mxGeometry x="107" y="479" width="70" height="30" as="geometry" />
        </mxCell>
        <mxCell id="DtII2pVFl0ACfh0e3tpP-3" value="salva" style="text;html=1;align=center;verticalAlign=middle;resizable=0;points=[];autosize=1;strokeColor=none;fillColor=none;" parent="1" vertex="1">
          <mxGeometry x="432" y="230" width="50" height="30" as="geometry" />
        </mxCell>
        <mxCell id="DtII2pVFl0ACfh0e3tpP-4" value="Ã¨ salvato" style="text;html=1;align=center;verticalAlign=middle;resizable=0;points=[];autosize=1;strokeColor=none;fillColor=none;" parent="1" vertex="1">
          <mxGeometry x="-113" y="310" width="70" height="30" as="geometry" />
        </mxCell>
        <mxCell id="YsdrxWBGCGvl4MCWMzZa-1" value="&lt;b&gt;Immobile_Residenziale&lt;/b&gt;" style="swimlane;fontStyle=0;childLayout=stackLayout;horizontal=1;startSize=26;fillColor=#dae8fc;horizontalStack=0;resizeParent=1;resizeParentMax=0;resizeLast=0;collapsible=1;marginBottom=0;whiteSpace=wrap;html=1;strokeColor=#6c8ebf;" parent="1" vertex="1">
          <mxGeometry x="437" y="959" width="180" height="182" as="geometry" />
        </mxCell>
        <mxCell id="YsdrxWBGCGvl4MCWMzZa-7" value="+ Numero_di_stanze : int" style="text;strokeColor=none;fillColor=none;align=left;verticalAlign=top;spacingLeft=4;spacingRight=4;overflow=hidden;rotatable=0;points=[[0,0.5],[1,0.5]];portConstraint=eastwest;whiteSpace=wrap;html=1;" parent="YsdrxWBGCGvl4MCWMzZa-1" vertex="1">
          <mxGeometry y="26" width="180" height="26" as="geometry" />
        </mxCell>
        <mxCell id="YsdrxWBGCGvl4MCWMzZa-8" value="+ Numero_di_bagni : int" style="text;strokeColor=none;fillColor=none;align=left;verticalAlign=top;spacingLeft=4;spacingRight=4;overflow=hidden;rotatable=0;points=[[0,0.5],[1,0.5]];portConstraint=eastwest;whiteSpace=wrap;html=1;" parent="YsdrxWBGCGvl4MCWMzZa-1" vertex="1">
          <mxGeometry y="52" width="180" height="26" as="geometry" />
        </mxCell>
        <mxCell id="YsdrxWBGCGvl4MCWMzZa-9" value="+ Piano : int" style="text;strokeColor=none;fillColor=none;align=left;verticalAlign=top;spacingLeft=4;spacingRight=4;overflow=hidden;rotatable=0;points=[[0,0.5],[1,0.5]];portConstraint=eastwest;whiteSpace=wrap;html=1;" parent="YsdrxWBGCGvl4MCWMzZa-1" vertex="1">
          <mxGeometry y="78" width="180" height="26" as="geometry" />
        </mxCell>
        <mxCell id="YsdrxWBGCGvl4MCWMzZa-10" value="+ Ascensore : EnumYN" style="text;strokeColor=none;fillColor=none;align=left;verticalAlign=top;spacingLeft=4;spacingRight=4;overflow=hidden;rotatable=0;points=[[0,0.5],[1,0.5]];portConstraint=eastwest;whiteSpace=wrap;html=1;" parent="YsdrxWBGCGvl4MCWMzZa-1" vertex="1">
          <mxGeometry y="104" width="180" height="26" as="geometry" />
        </mxCell>
        <mxCell id="Jgm_NE-xGGLkYZNyJDeA-2" value="+ Categoria : EnumR" style="text;strokeColor=none;fillColor=none;align=left;verticalAlign=top;spacingLeft=4;spacingRight=4;overflow=hidden;rotatable=0;points=[[0,0.5],[1,0.5]];portConstraint=eastwest;whiteSpace=wrap;html=1;" parent="YsdrxWBGCGvl4MCWMzZa-1" vertex="1">
          <mxGeometry y="130" width="180" height="26" as="geometry" />
        </mxCell>
        <mxCell id="Jgm_NE-xGGLkYZNyJDeA-26" value="+ Piscina : EnumYN" style="text;strokeColor=none;fillColor=none;align=left;verticalAlign=top;spacingLeft=4;spacingRight=4;overflow=hidden;rotatable=0;points=[[0,0.5],[1,0.5]];portConstraint=eastwest;whiteSpace=wrap;html=1;" parent="YsdrxWBGCGvl4MCWMzZa-1" vertex="1">
          <mxGeometry y="156" width="180" height="26" as="geometry" />
        </mxCell>
        <mxCell id="YsdrxWBGCGvl4MCWMzZa-20" value="&lt;b&gt;Immobile_Commerciale&lt;/b&gt;" style="swimlane;fontStyle=0;childLayout=stackLayout;horizontal=1;startSize=26;fillColor=#dae8fc;horizontalStack=0;resizeParent=1;resizeParentMax=0;resizeLast=0;collapsible=1;marginBottom=0;whiteSpace=wrap;html=1;strokeColor=#6c8ebf;" parent="1" vertex="1">
          <mxGeometry x="177" y="979" width="220" height="130" as="geometry" />
        </mxCell>
        <mxCell id="YsdrxWBGCGvl4MCWMzZa-22" value="+ Numero_di_bagni : int" style="text;strokeColor=none;fillColor=none;align=left;verticalAlign=top;spacingLeft=4;spacingRight=4;overflow=hidden;rotatable=0;points=[[0,0.5],[1,0.5]];portConstraint=eastwest;whiteSpace=wrap;html=1;" parent="YsdrxWBGCGvl4MCWMzZa-20" vertex="1">
          <mxGeometry y="26" width="220" height="26" as="geometry" />
        </mxCell>
        <mxCell id="YsdrxWBGCGvl4MCWMzZa-26" value="+ Data_di_Costruzione : Date" style="text;strokeColor=none;fillColor=none;align=left;verticalAlign=top;spacingLeft=4;spacingRight=4;overflow=hidden;rotatable=0;points=[[0,0.5],[1,0.5]];portConstraint=eastwest;whiteSpace=wrap;html=1;" parent="YsdrxWBGCGvl4MCWMzZa-20" vertex="1">
          <mxGeometry y="52" width="220" height="26" as="geometry" />
        </mxCell>
        <mxCell id="YsdrxWBGCGvl4MCWMzZa-27" value="+ Uscita_di_Emergenza : EnumYN" style="text;strokeColor=none;fillColor=none;align=left;verticalAlign=top;spacingLeft=4;spacingRight=4;overflow=hidden;rotatable=0;points=[[0,0.5],[1,0.5]];portConstraint=eastwest;whiteSpace=wrap;html=1;" parent="YsdrxWBGCGvl4MCWMzZa-20" vertex="1">
          <mxGeometry y="78" width="220" height="26" as="geometry" />
        </mxCell>
        <mxCell id="Jgm_NE-xGGLkYZNyJDeA-3" value="+ Categoria : EnumC" style="text;strokeColor=none;fillColor=none;align=left;verticalAlign=top;spacingLeft=4;spacingRight=4;overflow=hidden;rotatable=0;points=[[0,0.5],[1,0.5]];portConstraint=eastwest;whiteSpace=wrap;html=1;" parent="YsdrxWBGCGvl4MCWMzZa-20" vertex="1">
          <mxGeometry y="104" width="220" height="26" as="geometry" />
        </mxCell>
        <mxCell id="YsdrxWBGCGvl4MCWMzZa-32" value="&lt;b&gt;Immobile_Industriale&lt;/b&gt;" style="swimlane;fontStyle=0;childLayout=stackLayout;horizontal=1;startSize=26;fillColor=#dae8fc;horizontalStack=0;resizeParent=1;resizeParentMax=0;resizeLast=0;collapsible=1;marginBottom=0;whiteSpace=wrap;html=1;strokeColor=#6c8ebf;" parent="1" vertex="1">
          <mxGeometry x="-83" y="969" width="210" height="182" as="geometry" />
        </mxCell>
        <mxCell id="YsdrxWBGCGvl4MCWMzZa-37" value="+ Altezza_Soffitti : float" style="text;strokeColor=none;fillColor=none;align=left;verticalAlign=top;spacingLeft=4;spacingRight=4;overflow=hidden;rotatable=0;points=[[0,0.5],[1,0.5]];portConstraint=eastwest;whiteSpace=wrap;html=1;" parent="YsdrxWBGCGvl4MCWMzZa-32" vertex="1">
          <mxGeometry y="26" width="210" height="26" as="geometry" />
        </mxCell>
        <mxCell id="YsdrxWBGCGvl4MCWMzZa-38" value="+ Sistema_Antincendio : EnumYN" style="text;strokeColor=none;fillColor=none;align=left;verticalAlign=top;spacingLeft=4;spacingRight=4;overflow=hidden;rotatable=0;points=[[0,0.5],[1,0.5]];portConstraint=eastwest;whiteSpace=wrap;html=1;" parent="YsdrxWBGCGvl4MCWMzZa-32" vertex="1">
          <mxGeometry y="52" width="210" height="26" as="geometry" />
        </mxCell>
        <mxCell id="YsdrxWBGCGvl4MCWMzZa-39" value="+ Portata_Pavimento : int" style="text;strokeColor=none;fillColor=none;align=left;verticalAlign=top;spacingLeft=4;spacingRight=4;overflow=hidden;rotatable=0;points=[[0,0.5],[1,0.5]];portConstraint=eastwest;whiteSpace=wrap;html=1;" parent="YsdrxWBGCGvl4MCWMzZa-32" vertex="1">
          <mxGeometry y="78" width="210" height="26" as="geometry" />
        </mxCell>
        <mxCell id="YsdrxWBGCGvl4MCWMzZa-40" value="+ Numero_di_uffici : int" style="text;strokeColor=none;fillColor=none;align=left;verticalAlign=top;spacingLeft=4;spacingRight=4;overflow=hidden;rotatable=0;points=[[0,0.5],[1,0.5]];portConstraint=eastwest;whiteSpace=wrap;html=1;" parent="YsdrxWBGCGvl4MCWMzZa-32" vertex="1">
          <mxGeometry y="104" width="210" height="26" as="geometry" />
        </mxCell>
        <mxCell id="YsdrxWBGCGvl4MCWMzZa-42" value="+ Struttura_portante : String" style="text;strokeColor=none;fillColor=none;align=left;verticalAlign=top;spacingLeft=4;spacingRight=4;overflow=hidden;rotatable=0;points=[[0,0.5],[1,0.5]];portConstraint=eastwest;whiteSpace=wrap;html=1;" parent="YsdrxWBGCGvl4MCWMzZa-32" vertex="1">
          <mxGeometry y="130" width="210" height="26" as="geometry" />
        </mxCell>
        <mxCell id="Jgm_NE-xGGLkYZNyJDeA-4" value="+ Categoria : EnumI" style="text;strokeColor=none;fillColor=none;align=left;verticalAlign=top;spacingLeft=4;spacingRight=4;overflow=hidden;rotatable=0;points=[[0,0.5],[1,0.5]];portConstraint=eastwest;whiteSpace=wrap;html=1;" parent="YsdrxWBGCGvl4MCWMzZa-32" vertex="1">
          <mxGeometry y="156" width="210" height="26" as="geometry" />
        </mxCell>
        <mxCell id="Jgm_NE-xGGLkYZNyJDeA-5" value="&lt;b&gt;EnumR&lt;/b&gt;" style="swimlane;childLayout=stackLayout;horizontal=1;startSize=50;horizontalStack=0;rounded=1;fontSize=14;fontStyle=0;strokeWidth=2;resizeParent=0;resizeLast=1;shadow=0;dashed=0;align=center;arcSize=4;whiteSpace=wrap;html=1;fillColor=#d5e8d4;strokeColor=#82b366;" parent="1" vertex="1">
          <mxGeometry x="1460" y="799" width="170" height="170" as="geometry" />
        </mxCell>
        <mxCell id="Jgm_NE-xGGLkYZNyJDeA-6" value="&lt;span style=&quot;font-size: 18px;&quot;&gt;Casa Indipendente&lt;/span&gt;&lt;div&gt;&lt;span style=&quot;font-size: 18px;&quot;&gt;Appartamento&lt;/span&gt;&lt;/div&gt;&lt;div&gt;&lt;span style=&quot;font-size: 18px;&quot;&gt;Villa&lt;/span&gt;&lt;/div&gt;&lt;div&gt;&lt;span style=&quot;font-size: 18px;&quot;&gt;Loft&amp;nbsp;&lt;/span&gt;&lt;/div&gt;&lt;div&gt;&lt;span style=&quot;font-size: 18px;&quot;&gt;Attico&lt;/span&gt;&lt;/div&gt;" style="align=left;strokeColor=none;fillColor=none;spacingLeft=4;fontSize=12;verticalAlign=top;resizable=0;rotatable=0;part=1;html=1;" parent="Jgm_NE-xGGLkYZNyJDeA-5" vertex="1">
          <mxGeometry y="50" width="170" height="120" as="geometry" />
        </mxCell>
        <mxCell id="Jgm_NE-xGGLkYZNyJDeA-7" value="&lt;b&gt;EnumC&lt;/b&gt;" style="swimlane;childLayout=stackLayout;horizontal=1;startSize=50;horizontalStack=0;rounded=1;fontSize=14;fontStyle=0;strokeWidth=2;resizeParent=0;resizeLast=1;shadow=0;dashed=0;align=center;arcSize=4;whiteSpace=wrap;html=1;fillColor=#d5e8d4;strokeColor=#82b366;" parent="1" vertex="1">
          <mxGeometry x="1070" y="980" width="185" height="150" as="geometry" />
        </mxCell>
        <mxCell id="Jgm_NE-xGGLkYZNyJDeA-8" value="&lt;span style=&quot;font-size: 18px;&quot;&gt;Negozio&lt;/span&gt;&lt;div&gt;&lt;span style=&quot;font-size: 18px;&quot;&gt;Ufficio&lt;/span&gt;&lt;/div&gt;&lt;div&gt;&lt;span style=&quot;font-size: 18px;&quot;&gt;Ristorazione&lt;/span&gt;&lt;/div&gt;&lt;div&gt;&lt;span style=&quot;font-size: 18px;&quot;&gt;Locale_Commerciale&lt;/span&gt;&lt;/div&gt;" style="align=left;strokeColor=none;fillColor=none;spacingLeft=4;fontSize=12;verticalAlign=top;resizable=0;rotatable=0;part=1;html=1;" parent="Jgm_NE-xGGLkYZNyJDeA-7" vertex="1">
          <mxGeometry y="50" width="185" height="100" as="geometry" />
        </mxCell>
        <mxCell id="Jgm_NE-xGGLkYZNyJDeA-9" value="&lt;b&gt;EnumI&lt;/b&gt;" style="swimlane;childLayout=stackLayout;horizontal=1;startSize=50;horizontalStack=0;rounded=1;fontSize=14;fontStyle=0;strokeWidth=2;resizeParent=0;resizeLast=1;shadow=0;dashed=0;align=center;arcSize=4;whiteSpace=wrap;html=1;fillColor=#d5e8d4;strokeColor=#82b366;" parent="1" vertex="1">
          <mxGeometry x="1310" y="980" width="170" height="124" as="geometry" />
        </mxCell>
        <mxCell id="Jgm_NE-xGGLkYZNyJDeA-10" value="&lt;span style=&quot;font-size: 18px;&quot;&gt;Magazzino&lt;/span&gt;&lt;div&gt;&lt;span style=&quot;font-size: 18px;&quot;&gt;Capannone&lt;/span&gt;&lt;/div&gt;&lt;div&gt;&lt;span style=&quot;font-size: 18px;&quot;&gt;Fabbrica&lt;/span&gt;&lt;/div&gt;" style="align=left;strokeColor=none;fillColor=none;spacingLeft=4;fontSize=12;verticalAlign=top;resizable=0;rotatable=0;part=1;html=1;" parent="Jgm_NE-xGGLkYZNyJDeA-9" vertex="1">
          <mxGeometry y="50" width="170" height="74" as="geometry" />
        </mxCell>
        <mxCell id="Jgm_NE-xGGLkYZNyJDeA-11" value="&lt;b&gt;Immobile_Terreno&lt;/b&gt;" style="swimlane;fontStyle=0;childLayout=stackLayout;horizontal=1;startSize=26;fillColor=#dae8fc;horizontalStack=0;resizeParent=1;resizeParentMax=0;resizeLast=0;collapsible=1;marginBottom=0;whiteSpace=wrap;html=1;strokeColor=#6c8ebf;" parent="1" vertex="1">
          <mxGeometry x="-293" y="969" width="180" height="104" as="geometry" />
        </mxCell>
        <mxCell id="Jgm_NE-xGGLkYZNyJDeA-12" value="+ Composizione_suolo : String" style="text;strokeColor=none;fillColor=none;align=left;verticalAlign=top;spacingLeft=4;spacingRight=4;overflow=hidden;rotatable=0;points=[[0,0.5],[1,0.5]];portConstraint=eastwest;whiteSpace=wrap;html=1;" parent="Jgm_NE-xGGLkYZNyJDeA-11" vertex="1">
          <mxGeometry y="26" width="180" height="26" as="geometry" />
        </mxCell>
        <mxCell id="Jgm_NE-xGGLkYZNyJDeA-17" value="+ Inclinazione_terreno : int" style="text;strokeColor=none;fillColor=none;align=left;verticalAlign=top;spacingLeft=4;spacingRight=4;overflow=hidden;rotatable=0;points=[[0,0.5],[1,0.5]];portConstraint=eastwest;whiteSpace=wrap;html=1;" parent="Jgm_NE-xGGLkYZNyJDeA-11" vertex="1">
          <mxGeometry y="52" width="180" height="26" as="geometry" />
        </mxCell>
        <mxCell id="Jgm_NE-xGGLkYZNyJDeA-18" value="+ Categoria : EnumT" style="text;strokeColor=none;fillColor=none;align=left;verticalAlign=top;spacingLeft=4;spacingRight=4;overflow=hidden;rotatable=0;points=[[0,0.5],[1,0.5]];portConstraint=eastwest;whiteSpace=wrap;html=1;" parent="Jgm_NE-xGGLkYZNyJDeA-11" vertex="1">
          <mxGeometry y="78" width="180" height="26" as="geometry" />
        </mxCell>
        <mxCell id="Jgm_NE-xGGLkYZNyJDeA-19" value="&lt;b&gt;EnumT&lt;/b&gt;" style="swimlane;childLayout=stackLayout;horizontal=1;startSize=50;horizontalStack=0;rounded=1;fontSize=14;fontStyle=0;strokeWidth=2;resizeParent=0;resizeLast=1;shadow=0;dashed=0;align=center;arcSize=4;whiteSpace=wrap;html=1;fillColor=#d5e8d4;strokeColor=#82b366;" parent="1" vertex="1">
          <mxGeometry x="991" y="835" width="170" height="124" as="geometry" />
        </mxCell>
        <mxCell id="Jgm_NE-xGGLkYZNyJDeA-20" value="&lt;span style=&quot;font-size: 18px;&quot;&gt;Pascolo&lt;/span&gt;&lt;div&gt;&lt;span style=&quot;font-size: 18px;&quot;&gt;Edificabile&lt;/span&gt;&lt;/div&gt;&lt;div&gt;&lt;span style=&quot;font-size: 18px;&quot;&gt;Coltivabile&lt;/span&gt;&lt;/div&gt;" style="align=left;strokeColor=none;fillColor=none;spacingLeft=4;fontSize=12;verticalAlign=top;resizable=0;rotatable=0;part=1;html=1;" parent="Jgm_NE-xGGLkYZNyJDeA-19" vertex="1">
          <mxGeometry y="50" width="170" height="74" as="geometry" />
        </mxCell>
        <mxCell id="UJv71o3bR3QkaDZQn8Xq-1" value="&lt;b&gt;Acquirente&lt;/b&gt;" style="swimlane;fontStyle=0;childLayout=stackLayout;horizontal=1;startSize=26;fillColor=#dae8fc;horizontalStack=0;resizeParent=1;resizeParentMax=0;resizeLast=0;collapsible=1;marginBottom=0;whiteSpace=wrap;html=1;strokeColor=#6c8ebf;" parent="1" vertex="1">
          <mxGeometry x="347" y="310" width="180" height="52" as="geometry" />
        </mxCell>
        <mxCell id="UJv71o3bR3QkaDZQn8Xq-6" value="+ Data_di_Registrazione : Date" style="text;strokeColor=none;fillColor=none;align=left;verticalAlign=top;spacingLeft=4;spacingRight=4;overflow=hidden;rotatable=0;points=[[0,0.5],[1,0.5]];portConstraint=eastwest;whiteSpace=wrap;html=1;" parent="UJv71o3bR3QkaDZQn8Xq-1" vertex="1">
          <mxGeometry y="26" width="180" height="26" as="geometry" />
        </mxCell>
        <mxCell id="UJv71o3bR3QkaDZQn8Xq-7" value="&lt;b&gt;Agente_Immobiliare&lt;/b&gt;" style="swimlane;fontStyle=0;childLayout=stackLayout;horizontal=1;startSize=26;fillColor=#dae8fc;horizontalStack=0;resizeParent=1;resizeParentMax=0;resizeLast=0;collapsible=1;marginBottom=0;whiteSpace=wrap;html=1;strokeColor=#6c8ebf;" parent="1" vertex="1">
          <mxGeometry x="357" y="436" width="180" height="104" as="geometry" />
        </mxCell>
        <mxCell id="UJv71o3bR3QkaDZQn8Xq-8" value="+ Data_di_Registrazione : Date" style="text;strokeColor=none;fillColor=none;align=left;verticalAlign=top;spacingLeft=4;spacingRight=4;overflow=hidden;rotatable=0;points=[[0,0.5],[1,0.5]];portConstraint=eastwest;whiteSpace=wrap;html=1;" parent="UJv71o3bR3QkaDZQn8Xq-7" vertex="1">
          <mxGeometry y="26" width="180" height="26" as="geometry" />
        </mxCell>
        <mxCell id="UJv71o3bR3QkaDZQn8Xq-9" value="+ Numero_di_telefono : String" style="text;strokeColor=none;fillColor=none;align=left;verticalAlign=top;spacingLeft=4;spacingRight=4;overflow=hidden;rotatable=0;points=[[0,0.5],[1,0.5]];portConstraint=eastwest;whiteSpace=wrap;html=1;" parent="UJv71o3bR3QkaDZQn8Xq-7" vertex="1">
          <mxGeometry y="52" width="180" height="26" as="geometry" />
        </mxCell>
        <mxCell id="AuE6XfU9nsKiRzeataOM-1" value="+ Numero_REA : String" style="text;strokeColor=none;fillColor=none;align=left;verticalAlign=top;spacingLeft=4;spacingRight=4;overflow=hidden;rotatable=0;points=[[0,0.5],[1,0.5]];portConstraint=eastwest;whiteSpace=wrap;html=1;" parent="UJv71o3bR3QkaDZQn8Xq-7" vertex="1">
          <mxGeometry y="78" width="180" height="26" as="geometry" />
        </mxCell>
        <mxCell id="UJv71o3bR3QkaDZQn8Xq-13" value="" style="endArrow=none;html=1;rounded=0;exitX=1;exitY=0.5;exitDx=0;exitDy=0;entryX=0;entryY=0.5;entryDx=0;entryDy=0;" parent="1" source="UJv71o3bR3QkaDZQn8Xq-6" target="DDnz-kFCZ5VNoQRXpzYX-17" edge="1">
          <mxGeometry width="50" height="50" relative="1" as="geometry">
            <mxPoint x="697" y="500" as="sourcePoint" />
            <mxPoint x="747" y="450" as="targetPoint" />
          </mxGeometry>
        </mxCell>
        <mxCell id="UJv71o3bR3QkaDZQn8Xq-14" value="" style="endArrow=none;html=1;rounded=0;exitX=1;exitY=0.5;exitDx=0;exitDy=0;entryX=0;entryY=0.5;entryDx=0;entryDy=0;" parent="1" source="UJv71o3bR3QkaDZQn8Xq-8" target="DDnz-kFCZ5VNoQRXpzYX-18" edge="1">
          <mxGeometry width="50" height="50" relative="1" as="geometry">
            <mxPoint x="697" y="500" as="sourcePoint" />
            <mxPoint x="747" y="450" as="targetPoint" />
          </mxGeometry>
        </mxCell>
        <mxCell id="UJv71o3bR3QkaDZQn8Xq-15" value="" style="endArrow=none;html=1;rounded=0;exitX=1;exitY=0.5;exitDx=0;exitDy=0;entryX=0;entryY=0.5;entryDx=0;entryDy=0;" parent="1" target="UJv71o3bR3QkaDZQn8Xq-10" edge="1">
          <mxGeometry width="50" height="50" relative="1" as="geometry">
            <mxPoint x="546.9999999999995" y="617.0000000000002" as="sourcePoint" />
            <mxPoint x="747" y="450" as="targetPoint" />
          </mxGeometry>
        </mxCell>
        <mxCell id="UJv71o3bR3QkaDZQn8Xq-16" value="1" style="text;html=1;align=center;verticalAlign=middle;resizable=0;points=[];autosize=1;strokeColor=none;fillColor=none;" parent="1" vertex="1">
          <mxGeometry x="617" y="398" width="30" height="30" as="geometry" />
        </mxCell>
        <mxCell id="UJv71o3bR3QkaDZQn8Xq-17" value="1" style="text;html=1;align=center;verticalAlign=middle;resizable=0;points=[];autosize=1;strokeColor=none;fillColor=none;" parent="1" vertex="1">
          <mxGeometry x="617" y="440" width="30" height="30" as="geometry" />
        </mxCell>
        <mxCell id="UJv71o3bR3QkaDZQn8Xq-18" value="1" style="text;html=1;align=center;verticalAlign=middle;resizable=0;points=[];autosize=1;strokeColor=none;fillColor=none;" parent="1" vertex="1">
          <mxGeometry x="617" y="500" width="30" height="30" as="geometry" />
        </mxCell>
        <mxCell id="UJv71o3bR3QkaDZQn8Xq-19" value="0,1" style="text;html=1;align=center;verticalAlign=middle;resizable=0;points=[];autosize=1;strokeColor=none;fillColor=none;" parent="1" vertex="1">
          <mxGeometry x="517" y="328" width="40" height="30" as="geometry" />
        </mxCell>
        <mxCell id="UJv71o3bR3QkaDZQn8Xq-20" value="0,1" style="text;html=1;align=center;verticalAlign=middle;resizable=0;points=[];autosize=1;strokeColor=none;fillColor=none;" parent="1" vertex="1">
          <mxGeometry x="527" y="449" width="40" height="30" as="geometry" />
        </mxCell>
        <mxCell id="UJv71o3bR3QkaDZQn8Xq-21" value="0,1" style="text;html=1;align=center;verticalAlign=middle;resizable=0;points=[];autosize=1;strokeColor=none;fillColor=none;" parent="1" vertex="1">
          <mxGeometry x="537" y="610" width="40" height="30" as="geometry" />
        </mxCell>
        <mxCell id="UJv71o3bR3QkaDZQn8Xq-22" value="Ã¨" style="text;html=1;align=center;verticalAlign=middle;resizable=0;points=[];autosize=1;strokeColor=none;fillColor=none;" parent="1" vertex="1">
          <mxGeometry x="577" y="368" width="30" height="30" as="geometry" />
        </mxCell>
        <mxCell id="UJv71o3bR3QkaDZQn8Xq-23" value="Ã¨" style="text;html=1;align=center;verticalAlign=middle;resizable=0;points=[];autosize=1;strokeColor=none;fillColor=none;" parent="1" vertex="1">
          <mxGeometry x="577" y="440" width="30" height="30" as="geometry" />
        </mxCell>
        <mxCell id="UJv71o3bR3QkaDZQn8Xq-24" value="Ã¨" style="text;html=1;align=center;verticalAlign=middle;resizable=0;points=[];autosize=1;strokeColor=none;fillColor=none;" parent="1" vertex="1">
          <mxGeometry x="587" y="560" width="30" height="30" as="geometry" />
        </mxCell>
        <mxCell id="UJv71o3bR3QkaDZQn8Xq-25" value="&lt;b&gt;Prenotazione_visita&lt;/b&gt;" style="swimlane;fontStyle=0;childLayout=stackLayout;horizontal=1;startSize=26;fillColor=#dae8fc;horizontalStack=0;resizeParent=1;resizeParentMax=0;resizeLast=0;collapsible=1;marginBottom=0;whiteSpace=wrap;html=1;strokeColor=#6c8ebf;" parent="1" vertex="1">
          <mxGeometry x="37" y="358" width="180" height="78" as="geometry" />
        </mxCell>
        <mxCell id="UJv71o3bR3QkaDZQn8Xq-26" value="+ ID_Prenotazione : int" style="text;strokeColor=none;fillColor=none;align=left;verticalAlign=top;spacingLeft=4;spacingRight=4;overflow=hidden;rotatable=0;points=[[0,0.5],[1,0.5]];portConstraint=eastwest;whiteSpace=wrap;html=1;" parent="UJv71o3bR3QkaDZQn8Xq-25" vertex="1">
          <mxGeometry y="26" width="180" height="26" as="geometry" />
        </mxCell>
        <mxCell id="UJv71o3bR3QkaDZQn8Xq-27" value="+ Stato_Prenotazione : EnumP" style="text;strokeColor=none;fillColor=none;align=left;verticalAlign=top;spacingLeft=4;spacingRight=4;overflow=hidden;rotatable=0;points=[[0,0.5],[1,0.5]];portConstraint=eastwest;whiteSpace=wrap;html=1;" parent="UJv71o3bR3QkaDZQn8Xq-25" vertex="1">
          <mxGeometry y="52" width="180" height="26" as="geometry" />
        </mxCell>
        <mxCell id="UJv71o3bR3QkaDZQn8Xq-28" value="" style="endArrow=none;html=1;rounded=0;exitX=0;exitY=0.5;exitDx=0;exitDy=0;entryX=1;entryY=0.25;entryDx=0;entryDy=0;" parent="1" source="UJv71o3bR3QkaDZQn8Xq-6" target="UJv71o3bR3QkaDZQn8Xq-25" edge="1">
          <mxGeometry relative="1" as="geometry">
            <mxPoint x="267" y="358" as="sourcePoint" />
            <mxPoint x="227" y="330" as="targetPoint" />
          </mxGeometry>
        </mxCell>
        <mxCell id="UJv71o3bR3QkaDZQn8Xq-29" value="N" style="text;html=1;align=center;verticalAlign=middle;resizable=0;points=[];autosize=1;strokeColor=none;fillColor=none;" parent="1" vertex="1">
          <mxGeometry x="217" y="350" width="30" height="30" as="geometry" />
        </mxCell>
        <mxCell id="UJv71o3bR3QkaDZQn8Xq-30" value="1" style="text;html=1;align=center;verticalAlign=middle;resizable=0;points=[];autosize=1;strokeColor=none;fillColor=none;" parent="1" vertex="1">
          <mxGeometry x="317" y="328" width="30" height="30" as="geometry" />
        </mxCell>
        <mxCell id="UJv71o3bR3QkaDZQn8Xq-31" value="effettua" style="text;html=1;align=center;verticalAlign=middle;resizable=0;points=[];autosize=1;strokeColor=none;fillColor=none;rotation=-15;" parent="1" vertex="1">
          <mxGeometry x="257" y="340" width="60" height="30" as="geometry" />
        </mxCell>
        <mxCell id="UJv71o3bR3QkaDZQn8Xq-32" value="" style="endArrow=none;html=1;rounded=0;exitX=0;exitY=0.5;exitDx=0;exitDy=0;entryX=1;entryY=0.5;entryDx=0;entryDy=0;" parent="1" target="UJv71o3bR3QkaDZQn8Xq-27" edge="1">
          <mxGeometry relative="1" as="geometry">
            <mxPoint x="357" y="470" as="sourcePoint" />
            <mxPoint x="267" y="534" as="targetPoint" />
          </mxGeometry>
        </mxCell>
        <mxCell id="UJv71o3bR3QkaDZQn8Xq-33" value="N" style="text;html=1;align=center;verticalAlign=middle;resizable=0;points=[];autosize=1;strokeColor=none;fillColor=none;" parent="1" vertex="1">
          <mxGeometry x="217" y="403" width="30" height="30" as="geometry" />
        </mxCell>
        <mxCell id="UJv71o3bR3QkaDZQn8Xq-34" value="1" style="text;html=1;align=center;verticalAlign=middle;resizable=0;points=[];autosize=1;strokeColor=none;fillColor=none;" parent="1" vertex="1">
          <mxGeometry x="327" y="440" width="30" height="30" as="geometry" />
        </mxCell>
        <mxCell id="UJv71o3bR3QkaDZQn8Xq-36" value="gestisce" style="text;html=1;align=center;verticalAlign=middle;resizable=0;points=[];autosize=1;strokeColor=none;fillColor=none;rotation=20;" parent="1" vertex="1">
          <mxGeometry x="252" y="419" width="70" height="30" as="geometry" />
        </mxCell>
        <mxCell id="UJv71o3bR3QkaDZQn8Xq-37" value="&lt;b&gt;Immobile&lt;/b&gt;" style="swimlane;fontStyle=0;childLayout=stackLayout;horizontal=1;startSize=26;fillColor=#dae8fc;horizontalStack=0;resizeParent=1;resizeParentMax=0;resizeLast=0;collapsible=1;marginBottom=0;whiteSpace=wrap;html=1;strokeColor=#6c8ebf;" parent="1" vertex="1">
          <mxGeometry x="37" y="560" width="180" height="260" as="geometry" />
        </mxCell>
        <mxCell id="UJv71o3bR3QkaDZQn8Xq-38" value="+ ID_Immobile : int" style="text;strokeColor=none;fillColor=none;align=left;verticalAlign=top;spacingLeft=4;spacingRight=4;overflow=hidden;rotatable=0;points=[[0,0.5],[1,0.5]];portConstraint=eastwest;whiteSpace=wrap;html=1;" parent="UJv71o3bR3QkaDZQn8Xq-37" vertex="1">
          <mxGeometry y="26" width="180" height="26" as="geometry" />
        </mxCell>
        <mxCell id="UJv71o3bR3QkaDZQn8Xq-39" value="+ Descrizione : String" style="text;strokeColor=none;fillColor=none;align=left;verticalAlign=top;spacingLeft=4;spacingRight=4;overflow=hidden;rotatable=0;points=[[0,0.5],[1,0.5]];portConstraint=eastwest;whiteSpace=wrap;html=1;" parent="UJv71o3bR3QkaDZQn8Xq-37" vertex="1">
          <mxGeometry y="52" width="180" height="26" as="geometry" />
        </mxCell>
        <mxCell id="UJv71o3bR3QkaDZQn8Xq-40" value="+ Prezzo : float" style="text;strokeColor=none;fillColor=none;align=left;verticalAlign=top;spacingLeft=4;spacingRight=4;overflow=hidden;rotatable=0;points=[[0,0.5],[1,0.5]];portConstraint=eastwest;whiteSpace=wrap;html=1;" parent="UJv71o3bR3QkaDZQn8Xq-37" vertex="1">
          <mxGeometry y="78" width="180" height="26" as="geometry" />
        </mxCell>
        <mxCell id="UJv71o3bR3QkaDZQn8Xq-41" value="+ Dimensione : int" style="text;strokeColor=none;fillColor=none;align=left;verticalAlign=top;spacingLeft=4;spacingRight=4;overflow=hidden;rotatable=0;points=[[0,0.5],[1,0.5]];portConstraint=eastwest;whiteSpace=wrap;html=1;" parent="UJv71o3bR3QkaDZQn8Xq-37" vertex="1">
          <mxGeometry y="104" width="180" height="26" as="geometry" />
        </mxCell>
        <mxCell id="UJv71o3bR3QkaDZQn8Xq-42" value="+ Indirizzo : String" style="text;strokeColor=none;fillColor=none;align=left;verticalAlign=top;spacingLeft=4;spacingRight=4;overflow=hidden;rotatable=0;points=[[0,0.5],[1,0.5]];portConstraint=eastwest;whiteSpace=wrap;html=1;" parent="UJv71o3bR3QkaDZQn8Xq-37" vertex="1">
          <mxGeometry y="130" width="180" height="26" as="geometry" />
        </mxCell>
        <mxCell id="UJv71o3bR3QkaDZQn8Xq-43" value="+ Classe_energetica : String" style="text;strokeColor=none;fillColor=none;align=left;verticalAlign=top;spacingLeft=4;spacingRight=4;overflow=hidden;rotatable=0;points=[[0,0.5],[1,0.5]];portConstraint=eastwest;whiteSpace=wrap;html=1;" parent="UJv71o3bR3QkaDZQn8Xq-37" vertex="1">
          <mxGeometry y="156" width="180" height="26" as="geometry" />
        </mxCell>
        <mxCell id="UJv71o3bR3QkaDZQn8Xq-44" value="+ Disponibile : EnumYN" style="text;strokeColor=none;fillColor=none;align=left;verticalAlign=top;spacingLeft=4;spacingRight=4;overflow=hidden;rotatable=0;points=[[0,0.5],[1,0.5]];portConstraint=eastwest;whiteSpace=wrap;html=1;" parent="UJv71o3bR3QkaDZQn8Xq-37" vertex="1">
          <mxGeometry y="182" width="180" height="26" as="geometry" />
        </mxCell>
        <mxCell id="UJv71o3bR3QkaDZQn8Xq-45" value="+ ImmagineURL : String" style="text;strokeColor=none;fillColor=none;align=left;verticalAlign=top;spacingLeft=4;spacingRight=4;overflow=hidden;rotatable=0;points=[[0,0.5],[1,0.5]];portConstraint=eastwest;whiteSpace=wrap;html=1;" parent="UJv71o3bR3QkaDZQn8Xq-37" vertex="1">
          <mxGeometry y="208" width="180" height="26" as="geometry" />
        </mxCell>
        <mxCell id="UJv71o3bR3QkaDZQn8Xq-46" value="+ Stato_Immobile : EnumSIR" style="text;strokeColor=none;fillColor=none;align=left;verticalAlign=top;spacingLeft=4;spacingRight=4;overflow=hidden;rotatable=0;points=[[0,0.5],[1,0.5]];portConstraint=eastwest;whiteSpace=wrap;html=1;" parent="UJv71o3bR3QkaDZQn8Xq-37" vertex="1">
          <mxGeometry y="234" width="180" height="26" as="geometry" />
        </mxCell>
        <mxCell id="UJv71o3bR3QkaDZQn8Xq-47" value="" style="endArrow=none;html=1;rounded=0;exitX=0;exitY=0.5;exitDx=0;exitDy=0;entryX=1;entryY=0.5;entryDx=0;entryDy=0;" parent="1" source="UJv71o3bR3QkaDZQn8Xq-9" target="UJv71o3bR3QkaDZQn8Xq-39" edge="1">
          <mxGeometry relative="1" as="geometry">
            <mxPoint x="357" y="509" as="sourcePoint" />
            <mxPoint x="227" y="538" as="targetPoint" />
          </mxGeometry>
        </mxCell>
        <mxCell id="UJv71o3bR3QkaDZQn8Xq-48" value="N" style="text;html=1;align=center;verticalAlign=middle;resizable=0;points=[];autosize=1;strokeColor=none;fillColor=none;" parent="1" vertex="1">
          <mxGeometry x="217" y="585" width="30" height="30" as="geometry" />
        </mxCell>
        <mxCell id="UJv71o3bR3QkaDZQn8Xq-49" value="1" style="text;html=1;align=center;verticalAlign=middle;resizable=0;points=[];autosize=1;strokeColor=none;fillColor=none;" parent="1" vertex="1">
          <mxGeometry x="327" y="480" width="30" height="30" as="geometry" />
        </mxCell>
        <mxCell id="UJv71o3bR3QkaDZQn8Xq-51" value="" style="endArrow=none;html=1;rounded=0;entryX=0.383;entryY=0.962;entryDx=0;entryDy=0;entryPerimeter=0;exitX=0.5;exitY=0;exitDx=0;exitDy=0;" parent="1" source="UJv71o3bR3QkaDZQn8Xq-37" target="UJv71o3bR3QkaDZQn8Xq-27" edge="1">
          <mxGeometry width="50" height="50" relative="1" as="geometry">
            <mxPoint x="377" y="500" as="sourcePoint" />
            <mxPoint x="427" y="450" as="targetPoint" />
          </mxGeometry>
        </mxCell>
        <mxCell id="UJv71o3bR3QkaDZQn8Xq-52" value="N" style="text;html=1;align=center;verticalAlign=middle;resizable=0;points=[];autosize=1;strokeColor=none;fillColor=none;" parent="1" vertex="1">
          <mxGeometry x="107" y="433" width="30" height="30" as="geometry" />
        </mxCell>
        <mxCell id="UJv71o3bR3QkaDZQn8Xq-53" value="1" style="text;html=1;align=center;verticalAlign=middle;resizable=0;points=[];autosize=1;strokeColor=none;fillColor=none;" parent="1" vertex="1">
          <mxGeometry x="117" y="530" width="30" height="30" as="geometry" />
        </mxCell>
        <mxCell id="UJv71o3bR3QkaDZQn8Xq-54" value="&lt;b&gt;Annunci_Preferiti&lt;/b&gt;" style="swimlane;fontStyle=0;childLayout=stackLayout;horizontal=1;startSize=26;fillColor=#dae8fc;horizontalStack=0;resizeParent=1;resizeParentMax=0;resizeLast=0;collapsible=1;marginBottom=0;whiteSpace=wrap;html=1;strokeColor=#6c8ebf;" parent="1" vertex="1">
          <mxGeometry x="347" y="129" width="180" height="52" as="geometry" />
        </mxCell>
        <mxCell id="UJv71o3bR3QkaDZQn8Xq-55" value="+ Data_di_selezione : Date" style="text;strokeColor=none;fillColor=none;align=left;verticalAlign=top;spacingLeft=4;spacingRight=4;overflow=hidden;rotatable=0;points=[[0,0.5],[1,0.5]];portConstraint=eastwest;whiteSpace=wrap;html=1;" parent="UJv71o3bR3QkaDZQn8Xq-54" vertex="1">
          <mxGeometry y="26" width="180" height="26" as="geometry" />
        </mxCell>
        <mxCell id="UJv71o3bR3QkaDZQn8Xq-56" value="" style="endArrow=none;html=1;rounded=0;entryX=0.501;entryY=0.985;entryDx=0;entryDy=0;entryPerimeter=0;" parent="1" source="UJv71o3bR3QkaDZQn8Xq-1" target="UJv71o3bR3QkaDZQn8Xq-55" edge="1">
          <mxGeometry width="50" height="50" relative="1" as="geometry">
            <mxPoint x="727" y="330" as="sourcePoint" />
            <mxPoint x="777" y="280" as="targetPoint" />
          </mxGeometry>
        </mxCell>
        <mxCell id="UJv71o3bR3QkaDZQn8Xq-57" value="N" style="text;html=1;align=center;verticalAlign=middle;resizable=0;points=[];autosize=1;strokeColor=none;fillColor=none;" parent="1" vertex="1">
          <mxGeometry x="432" y="176" width="30" height="30" as="geometry" />
        </mxCell>
        <mxCell id="UJv71o3bR3QkaDZQn8Xq-58" value="1" style="text;html=1;align=center;verticalAlign=middle;resizable=0;points=[];autosize=1;strokeColor=none;fillColor=none;" parent="1" vertex="1">
          <mxGeometry x="432" y="280" width="30" height="30" as="geometry" />
        </mxCell>
        <mxCell id="UJv71o3bR3QkaDZQn8Xq-59" value="" style="endArrow=none;html=1;rounded=0;entryX=0;entryY=0.5;entryDx=0;entryDy=0;exitX=0;exitY=0.5;exitDx=0;exitDy=0;" parent="1" source="UJv71o3bR3QkaDZQn8Xq-54" target="UJv71o3bR3QkaDZQn8Xq-40" edge="1">
          <mxGeometry width="50" height="50" relative="1" as="geometry">
            <mxPoint x="237" y="410" as="sourcePoint" />
            <mxPoint x="287" y="360" as="targetPoint" />
            <Array as="points">
              <mxPoint x="-113" y="160" />
              <mxPoint x="-113" y="650" />
            </Array>
          </mxGeometry>
        </mxCell>
        <mxCell id="UJv71o3bR3QkaDZQn8Xq-60" value="N" style="text;html=1;align=center;verticalAlign=middle;resizable=0;points=[];autosize=1;strokeColor=none;fillColor=none;" parent="1" vertex="1">
          <mxGeometry x="317" y="129" width="30" height="30" as="geometry" />
        </mxCell>
        <mxCell id="UJv71o3bR3QkaDZQn8Xq-61" value="1" style="text;html=1;align=center;verticalAlign=middle;resizable=0;points=[];autosize=1;strokeColor=none;fillColor=none;" parent="1" vertex="1">
          <mxGeometry x="7" y="626" width="30" height="30" as="geometry" />
        </mxCell>
        <mxCell id="UJv71o3bR3QkaDZQn8Xq-62" value="" style="endArrow=none;html=1;rounded=0;exitX=0.5;exitY=0;exitDx=0;exitDy=0;entryX=0.056;entryY=0.933;entryDx=0;entryDy=0;entryPerimeter=0;" parent="1" source="Jgm_NE-xGGLkYZNyJDeA-11" target="UJv71o3bR3QkaDZQn8Xq-46" edge="1">
          <mxGeometry width="50" height="50" relative="1" as="geometry">
            <mxPoint x="220" y="820" as="sourcePoint" />
            <mxPoint x="270" y="770" as="targetPoint" />
          </mxGeometry>
        </mxCell>
        <mxCell id="UJv71o3bR3QkaDZQn8Xq-63" value="" style="endArrow=none;html=1;rounded=0;exitX=0.5;exitY=0;exitDx=0;exitDy=0;entryX=0.328;entryY=1.048;entryDx=0;entryDy=0;entryPerimeter=0;" parent="1" source="YsdrxWBGCGvl4MCWMzZa-32" target="UJv71o3bR3QkaDZQn8Xq-46" edge="1">
          <mxGeometry width="50" height="50" relative="1" as="geometry">
            <mxPoint x="220" y="820" as="sourcePoint" />
            <mxPoint x="270" y="770" as="targetPoint" />
          </mxGeometry>
        </mxCell>
        <mxCell id="UJv71o3bR3QkaDZQn8Xq-64" value="" style="endArrow=none;html=1;rounded=0;exitX=0.5;exitY=0;exitDx=0;exitDy=0;" parent="1" source="YsdrxWBGCGvl4MCWMzZa-20" target="UJv71o3bR3QkaDZQn8Xq-46" edge="1">
          <mxGeometry width="50" height="50" relative="1" as="geometry">
            <mxPoint x="220" y="820" as="sourcePoint" />
            <mxPoint x="270" y="770" as="targetPoint" />
          </mxGeometry>
        </mxCell>
        <mxCell id="UJv71o3bR3QkaDZQn8Xq-65" value="" style="endArrow=none;html=1;rounded=0;exitX=0.5;exitY=0;exitDx=0;exitDy=0;entryX=1.006;entryY=1.01;entryDx=0;entryDy=0;entryPerimeter=0;" parent="1" source="YsdrxWBGCGvl4MCWMzZa-1" target="UJv71o3bR3QkaDZQn8Xq-46" edge="1">
          <mxGeometry width="50" height="50" relative="1" as="geometry">
            <mxPoint x="220" y="820" as="sourcePoint" />
            <mxPoint x="270" y="770" as="targetPoint" />
          </mxGeometry>
        </mxCell>
        <mxCell id="UJv71o3bR3QkaDZQn8Xq-66" value="Ã¨" style="text;html=1;align=center;verticalAlign=middle;resizable=0;points=[];autosize=1;strokeColor=none;fillColor=none;" parent="1" vertex="1">
          <mxGeometry x="327" y="850" width="30" height="30" as="geometry" />
        </mxCell>
        <mxCell id="UJv71o3bR3QkaDZQn8Xq-67" value="Ã¨" style="text;html=1;align=center;verticalAlign=middle;resizable=0;points=[];autosize=1;strokeColor=none;fillColor=none;" parent="1" vertex="1">
          <mxGeometry x="200" y="870" width="30" height="30" as="geometry" />
        </mxCell>
        <mxCell id="UJv71o3bR3QkaDZQn8Xq-68" value="Ã¨" style="text;html=1;align=center;verticalAlign=middle;resizable=0;points=[];autosize=1;strokeColor=none;fillColor=none;" parent="1" vertex="1">
          <mxGeometry x="50" y="890" width="30" height="30" as="geometry" />
        </mxCell>
        <mxCell id="UJv71o3bR3QkaDZQn8Xq-69" value="Ã¨" style="text;html=1;align=center;verticalAlign=middle;resizable=0;points=[];autosize=1;strokeColor=none;fillColor=none;" parent="1" vertex="1">
          <mxGeometry x="-73" y="880" width="30" height="30" as="geometry" />
        </mxCell>
        <mxCell id="UJv71o3bR3QkaDZQn8Xq-70" value="0,1" style="text;html=1;align=center;verticalAlign=middle;resizable=0;points=[];autosize=1;strokeColor=none;fillColor=none;" parent="1" vertex="1">
          <mxGeometry x="517" y="929" width="40" height="30" as="geometry" />
        </mxCell>
        <mxCell id="UJv71o3bR3QkaDZQn8Xq-71" value="0,1" style="text;html=1;align=center;verticalAlign=middle;resizable=0;points=[];autosize=1;strokeColor=none;fillColor=none;" parent="1" vertex="1">
          <mxGeometry x="282" y="949" width="40" height="30" as="geometry" />
        </mxCell>
        <mxCell id="UJv71o3bR3QkaDZQn8Xq-72" value="0,1" style="text;html=1;align=center;verticalAlign=middle;resizable=0;points=[];autosize=1;strokeColor=none;fillColor=none;" parent="1" vertex="1">
          <mxGeometry x="30" y="939" width="40" height="30" as="geometry" />
        </mxCell>
        <mxCell id="UJv71o3bR3QkaDZQn8Xq-73" value="0,1" style="text;html=1;align=center;verticalAlign=middle;resizable=0;points=[];autosize=1;strokeColor=none;fillColor=none;" parent="1" vertex="1">
          <mxGeometry x="-230" y="940" width="40" height="30" as="geometry" />
        </mxCell>
        <mxCell id="UJv71o3bR3QkaDZQn8Xq-74" value="1" style="text;html=1;align=center;verticalAlign=middle;resizable=0;points=[];autosize=1;strokeColor=none;fillColor=none;" parent="1" vertex="1">
          <mxGeometry x="217" y="800" width="30" height="30" as="geometry" />
        </mxCell>
        <mxCell id="UJv71o3bR3QkaDZQn8Xq-75" value="1" style="text;html=1;align=center;verticalAlign=middle;resizable=0;points=[];autosize=1;strokeColor=none;fillColor=none;" parent="1" vertex="1">
          <mxGeometry x="150" y="820" width="30" height="30" as="geometry" />
        </mxCell>
        <mxCell id="UJv71o3bR3QkaDZQn8Xq-76" value="1" style="text;html=1;align=center;verticalAlign=middle;resizable=0;points=[];autosize=1;strokeColor=none;fillColor=none;" parent="1" vertex="1">
          <mxGeometry x="87" y="820" width="30" height="30" as="geometry" />
        </mxCell>
        <mxCell id="UJv71o3bR3QkaDZQn8Xq-77" value="1" style="text;html=1;align=center;verticalAlign=middle;resizable=0;points=[];autosize=1;strokeColor=none;fillColor=none;" parent="1" vertex="1">
          <mxGeometry x="20" y="820" width="30" height="30" as="geometry" />
        </mxCell>
      </root>
    </mxGraphModel>
  </diagram>
</mxfile>
